<svg width="44" height="44" viewBox="0 0 44 44" fill="none" xmlns="http://www.w3.org/2000/svg">
<g clip-path="url(#clip0)">
<path d="M43.9668 14.9685C43.9567 14.9153 43.9479 14.862 43.9337 14.8097C43.9247 14.7783 43.9141 14.7487 43.9041 14.7178C43.8897 14.6713 43.8734 14.6255 43.8555 14.5803C43.8424 14.549 43.8276 14.5188 43.8133 14.4885C43.7936 14.4458 43.772 14.4039 43.7487 14.363C43.7322 14.3328 43.7131 14.3043 43.6949 14.2754C43.6509 14.2069 43.6026 14.1414 43.5502 14.0791C43.5203 14.0438 43.4891 14.0097 43.4567 13.9767C43.4318 13.9517 43.4069 13.9268 43.3807 13.9026C43.3463 13.8712 43.3106 13.8414 43.2735 13.8132C43.2451 13.7912 43.2173 13.7685 43.1875 13.7484C43.1771 13.7408 43.1674 13.7319 43.1563 13.7247L23.0483 0.318445C22.7378 0.111249 22.373 0.000671387 21.9997 0.000671387C21.6265 0.000671387 21.2617 0.111249 20.9512 0.318445L0.841844 13.7243C0.830672 13.7314 0.821906 13.7403 0.810562 13.7481C0.781 13.7687 0.753156 13.7907 0.724625 13.8127C0.688108 13.8414 0.652345 13.871 0.617375 13.9015C0.59141 13.9253 0.566301 13.9499 0.542094 13.9755C0.508922 14.0088 0.478156 14.0425 0.447906 14.0781C0.425563 14.1047 0.404078 14.1313 0.383281 14.1611C0.354922 14.1984 0.328797 14.2364 0.303359 14.2761C0.284969 14.3051 0.266578 14.3335 0.249391 14.3637C0.226327 14.4043 0.204995 14.4458 0.185453 14.4882C0.171188 14.5184 0.155891 14.5492 0.143344 14.5799C0.124953 14.625 0.108969 14.6712 0.0941875 14.7174C0.0842187 14.7484 0.0735625 14.7785 0.0651406 14.8063C0.0513906 14.8584 0.0414219 14.9111 0.0319688 14.9651C0.0268125 14.9924 0.0201094 15.0191 0.0165 15.0469C0.00584375 15.1286 0 15.2104 0 15.2939V28.7029C0 28.7857 0.00584375 28.8688 0.0177031 28.9499C0.022 28.9796 0.0297344 29.0032 0.0355781 29.0317C0.0450312 29.085 0.0532813 29.1383 0.0711562 29.1917C0.0794063 29.2213 0.0888594 29.251 0.100719 29.2835C0.1155 29.3309 0.130281 29.3784 0.148156 29.4217C0.160531 29.4512 0.177719 29.4808 0.189578 29.5105C0.209172 29.552 0.231172 29.5934 0.254891 29.6367C0.271391 29.6663 0.290297 29.696 0.308172 29.7232C0.333609 29.7647 0.361453 29.8003 0.391016 29.8357C0.411813 29.8655 0.432609 29.889 0.456328 29.9175C0.486406 29.9531 0.515453 29.9887 0.551031 30.0202C0.575266 30.0437 0.598469 30.0734 0.628031 30.0911C0.662406 30.1209 0.699188 30.1504 0.734594 30.1812C0.763125 30.2049 0.794062 30.2228 0.817609 30.2458C0.828953 30.2517 0.835484 30.2635 0.847344 30.2689L20.9512 43.682C21.2609 43.891 21.6264 44.0019 22 44.0001C22.3732 43.9994 22.738 43.8888 23.0488 43.6821L43.1582 30.2759C43.1693 30.269 43.1788 30.2606 43.1894 30.2529C43.219 30.2322 43.2468 30.2102 43.2754 30.1884C43.3122 30.1592 43.3483 30.1291 43.3826 30.0984C43.4086 30.0752 43.4335 30.0497 43.4584 30.0248C43.5155 29.9672 43.5683 29.9057 43.6165 29.8405C43.6451 29.8032 43.6712 29.7647 43.6966 29.7256C43.715 29.6972 43.7334 29.6681 43.7506 29.6391C43.7743 29.5975 43.795 29.5556 43.8151 29.5129C43.8293 29.4827 43.8443 29.4524 43.8572 29.4217C43.8756 29.376 43.891 29.3297 43.9058 29.2835C43.9158 29.2527 43.9264 29.2225 43.9354 29.1917C43.9491 29.1396 43.9586 29.0862 43.9685 29.0329C43.9734 29.0056 43.9806 28.9789 43.9833 28.9511C43.9942 28.8694 44 28.7876 44 28.7041V15.2973C44 15.2138 43.9935 15.132 43.9833 15.0502C43.9787 15.0211 43.9697 14.9976 43.9639 14.9685H43.9668ZM21.9995 26.473L15.3127 22.0006L21.9995 17.5276L28.6866 22.0006L21.9995 26.473ZM20.1092 14.2432L11.9121 19.726L5.29547 15.2996L20.1094 5.42399V14.2432H20.1092ZM8.51159 22L3.78211 25.1635V18.8366L8.51159 22ZM11.9121 24.2764L20.1094 29.7586V38.5778L5.29547 28.701L11.9123 24.2752V24.2764H11.9121ZM23.8901 29.7575L32.0872 24.2754L38.7045 28.701L23.8901 38.5766V29.7574V29.7575ZM35.4877 22.0012L40.2179 18.8371V25.1647L35.4879 22V22.0012H35.4877ZM32.0872 19.7259L23.8901 14.2438V5.42399L38.7045 15.2998L32.0873 19.7259H32.0872Z" fill="black"/>
</g>
<defs>
<clipPath id="clip0">
<rect width="44" height="44" fill="white"/>
</clipPath>
</defs>
</svg>
