<svg width="59" height="59" viewBox="0 0 59 59" fill="none" xmlns="http://www.w3.org/2000/svg">
<path d="M22.6589 44.4845C36.5741 44.4845 44.1851 32.9559 44.1851 22.9584C44.1851 22.6309 44.1851 22.3049 44.163 21.9804C45.6436 20.9095 46.9217 19.5834 47.9375 18.0643C46.5567 18.6762 45.092 19.0774 43.5922 19.2546C45.1715 18.3091 46.3535 16.822 46.9183 15.0701C45.4332 15.9513 43.8084 16.5724 42.1142 16.9064C40.9735 15.6935 39.4649 14.8904 37.8218 14.6212C36.1786 14.3521 34.4926 14.6321 33.0246 15.4177C31.5566 16.2034 30.3884 17.4509 29.7009 18.9674C29.0133 20.4838 28.8448 22.1846 29.2212 23.8065C26.2133 23.6557 23.2708 22.874 20.5846 21.5123C17.8984 20.1505 15.5286 18.239 13.629 15.902C12.6615 17.5675 12.3652 19.5391 12.8004 21.4154C13.2356 23.2917 14.3695 24.9317 15.9713 26.0013C14.7673 25.9656 13.5896 25.6408 12.5375 25.0543C12.5375 25.0853 12.5375 25.1178 12.5375 25.1502C12.538 26.8969 13.1426 28.5897 14.2489 29.9415C15.3552 31.2932 16.895 32.2206 18.6071 32.5665C17.4933 32.8703 16.3247 32.9147 15.191 32.6963C15.6745 34.1996 16.6157 35.5142 17.883 36.4562C19.1503 37.3982 20.6804 37.9206 22.2592 37.9503C19.5802 40.0557 16.2708 41.1987 12.8635 41.1953C12.2615 41.1941 11.6602 41.1577 11.0625 41.0861C14.5223 43.3064 18.548 44.4841 22.6589 44.4786" fill="#1DA1F2"/>
</svg>
