<svg width="343" height="347" viewBox="0 0 343 347" fill="none" xmlns="http://www.w3.org/2000/svg">
<path d="M152.129 331.851C204.571 331.851 247.085 326.043 247.085 318.878C247.085 311.713 204.571 305.905 152.129 305.905C99.6857 305.905 57.1724 311.713 57.1724 318.878C57.1724 326.043 99.6857 331.851 152.129 331.851Z" fill="url(#paint0_linear)"/>
<path d="M138.494 96.4325C135.278 94.0821 132.777 90.8869 131.268 87.202C129.76 83.517 129.304 79.4866 129.95 75.5581C130.596 71.6297 132.32 67.9572 134.929 64.9483C137.539 61.9395 140.932 59.7122 144.733 58.5138C148.172 57.5439 151.747 57.1415 155.317 57.3226C178.784 57.8578 201.508 70.5118 224.689 66.8174C226.705 66.3837 228.762 66.1667 230.824 66.17C231.86 66.1796 232.882 66.4165 233.816 66.864C234.751 67.3115 235.576 67.9586 236.233 68.7595C236.79 69.6207 237.136 70.601 237.243 71.6209C237.349 72.6408 237.213 73.6715 236.846 74.629C236.085 76.5409 234.904 78.2577 233.39 79.6526C230.679 82.3957 227.494 84.6269 223.989 86.2386C221.708 87.283 219.281 88.0685 217.181 89.4668C214.382 91.3226 212.368 94.1279 209.88 96.3721C203.495 102.121 194.328 103.864 185.756 103.165C177.185 102.466 168.977 99.6003 160.7 97.1231C152.422 94.6458 143.877 92.6432 135.341 93.6704" fill="#68E1FD"/>
<path d="M138.494 96.4325C135.278 94.0821 132.777 90.8869 131.268 87.202C129.76 83.517 129.304 79.4866 129.95 75.5581C130.596 71.6297 132.32 67.9572 134.929 64.9483C137.539 61.9395 140.932 59.7122 144.733 58.5138C148.172 57.5439 151.747 57.1415 155.317 57.3226C178.784 57.8578 201.508 70.5118 224.689 66.8174C226.705 66.3837 228.762 66.1667 230.824 66.17C231.86 66.1796 232.882 66.4165 233.816 66.864C234.751 67.3115 235.576 67.9586 236.233 68.7595C236.79 69.6207 237.136 70.601 237.243 71.6209C237.349 72.6408 237.213 73.6715 236.846 74.629C236.085 76.5409 234.904 78.2577 233.39 79.6526C230.679 82.3957 227.494 84.6269 223.989 86.2386C221.708 87.283 219.281 88.0685 217.181 89.4668C214.382 91.3226 212.368 94.1279 209.88 96.3721C203.495 102.121 194.328 103.864 185.756 103.165C177.185 102.466 168.977 99.6003 160.7 97.1231C152.422 94.6458 143.877 92.6432 135.341 93.6704" fill="url(#paint1_linear)"/>
<path d="M153.692 110.882C144.456 109.596 135.47 115.413 129.958 122.923C124.445 130.432 121.603 139.496 118.129 148.136C114.239 157.832 109.476 167.155 103.899 175.99C100.322 181.661 96.3386 187.28 94.792 193.797C93.3232 199.977 94.1699 206.477 95.5869 212.666C97.4791 220.892 100.434 229.014 105.549 235.73C110.664 242.445 118.147 247.641 126.528 248.677C135.764 249.86 144.819 246.088 153.96 244.258C172.9 240.529 192.314 245.414 211.487 247.659C221.086 248.781 230.971 249.221 240.294 246.64C249.616 244.059 258.378 238.06 262.3 229.23C266.145 220.598 264.892 210.638 265.756 201.212C266.767 189.861 271.044 178.649 278.717 170.224C284.765 163.604 292.645 158.891 298.736 152.322C304.827 145.754 309.027 136.086 305.441 127.878C289.984 129.949 274.103 132.003 258.956 128.335C250.057 126.177 241.762 122.112 233.174 118.952C224.087 115.603 214.663 113.25 205.067 111.935C196.358 110.744 187.225 110.459 179.034 113.661C174.636 115.388 169.677 114.222 165.011 113.506C161.322 112.971 157.347 111.4 153.692 110.882Z" fill="#68E1FD"/>
<path d="M153.692 110.882C144.456 109.596 135.47 115.413 129.958 122.923C124.445 130.432 121.603 139.496 118.129 148.136C114.239 157.832 109.476 167.155 103.899 175.99C100.322 181.661 96.3386 187.28 94.792 193.797C93.3232 199.977 94.1699 206.477 95.5869 212.666C97.4791 220.892 100.434 229.014 105.549 235.73C110.664 242.445 118.147 247.641 126.528 248.677C135.764 249.86 144.819 246.088 153.96 244.258C172.9 240.529 192.314 245.414 211.487 247.659C221.086 248.781 230.971 249.221 240.294 246.64C249.616 244.059 258.378 238.06 262.3 229.23C266.145 220.598 264.892 210.638 265.756 201.212C266.767 189.861 271.044 178.649 278.717 170.224C284.765 163.604 292.645 158.891 298.736 152.322C304.827 145.754 309.027 136.086 305.441 127.878C289.984 129.949 274.103 132.003 258.956 128.335C250.057 126.177 241.762 122.112 233.174 118.952C224.087 115.603 214.663 113.25 205.067 111.935C196.358 110.744 187.225 110.459 179.034 113.661C174.636 115.388 169.677 114.222 165.011 113.506C161.322 112.971 157.347 111.4 153.692 110.882Z" fill="url(#paint2_linear)"/>
<path d="M157.779 119.246C149.312 118.063 141.061 123.406 136.006 130.294C130.951 137.182 128.333 145.503 125.154 153.427C121.581 162.326 117.208 170.883 112.09 178.994C108.807 184.173 105.178 189.352 103.735 195.325C102.387 200.996 103.164 206.96 104.469 212.64C106.197 220.184 108.919 227.642 113.61 233.805C118.302 239.968 125.171 244.741 132.852 245.716C141.337 246.804 149.64 243.317 158.03 241.66C175.405 238.207 193.222 242.721 210.813 244.784C219.626 245.811 228.698 246.217 237.252 243.852C245.806 241.487 253.842 235.971 257.444 227.866C260.97 219.925 259.846 210.81 260.615 202.161C261.54 191.743 265.463 181.445 272.513 173.729C278.051 167.687 285.283 163.328 290.882 157.329C296.481 151.33 300.317 142.396 296.991 134.886C282.812 136.794 268.245 138.684 254.343 135.309C246.178 133.333 238.566 129.604 230.686 126.678C222.347 123.608 213.699 121.452 204.895 120.247C196.902 119.151 188.521 118.892 181.013 121.844C176.978 123.424 172.425 122.362 168.139 121.697C164.787 121.162 161.149 119.721 157.779 119.246Z" fill="url(#paint3_linear)"/>
<path d="M135.315 114.645C130.934 115.577 127.478 118.84 124.273 121.956L108.85 136.958C107.199 138.563 105.497 140.247 104.763 142.422C103.812 145.244 104.676 148.352 105.912 151.053C107.217 153.893 109.143 156.699 112.081 157.76C114.042 158.468 116.203 158.295 118.276 158.123L138.382 156.396L139.998 188.083C139.943 189.08 140.25 190.064 140.862 190.854C141.408 191.304 142.064 191.602 142.763 191.717C152.569 194.307 162.805 194.85 172.831 193.314C174.021 193.226 175.166 192.824 176.148 192.149C177.306 191.19 177.712 189.62 178.023 188.152C180.031 178.659 180.7 168.932 180.011 159.253C184.27 164.631 187.13 152.978 193.559 155.335C196.643 156.465 199.849 157.553 203.123 157.329C206.398 157.104 209.776 155.231 210.779 152.15C211.781 149.068 210.269 145.78 208.644 142.983C202.622 132.668 192.738 124.425 182.974 117.52C182.058 114.654 179.414 117.425 176.485 116.717C175.5 116.475 173.168 120.29 172.165 120.23C170.437 120.109 173.893 123.588 172.165 123.467C161.607 116.225 147.843 111.995 135.315 114.645Z" fill="#68E1FD"/>
<path d="M168.562 136.449C168.781 142.491 168.994 148.533 169.202 154.575C169.16 157.118 169.531 159.651 170.299 162.076C171.163 164.45 173.055 166.608 175.483 167.186C176.096 167.359 176.741 167.383 177.365 167.255C177.989 167.127 178.573 166.852 179.069 166.452C180.08 165.52 180.313 164.044 180.408 162.68C180.814 157.147 179.976 151.537 180.935 146.082C181.238 144.355 181.799 142.482 183.32 141.533C185.195 140.333 187.64 141.041 189.783 141.628C193.931 142.759 198.219 143.302 202.518 143.242C200.073 139.789 195.235 139.099 191.684 136.759C186.499 133.307 184.158 126.402 178.499 123.812C176.771 123.113 174.958 122.649 173.107 122.431C170.653 122.034 161.685 121.033 162.886 126.013C163.335 127.86 165.849 128.387 166.929 129.837C168.372 131.727 168.476 134.205 168.562 136.449Z" fill="url(#paint4_linear)"/>
<path d="M119.054 141.231C120.846 137.531 123.491 134.308 126.771 131.827C130.051 129.345 133.873 127.675 137.924 126.954C138.906 126.695 139.947 126.784 140.87 127.204C142.045 127.886 142.408 129.379 142.65 130.717C145.501 146.66 146.374 162.887 146.495 179.054C146.639 180.796 146.378 182.548 145.735 184.173C144.966 185.735 143.203 186.961 141.518 186.521C140.79 186.261 140.152 185.797 139.68 185.185C139.209 184.573 138.923 183.838 138.857 183.068C138.735 181.543 138.834 180.008 139.151 178.511C140.533 168.507 137.12 158.658 136.559 148.757C136.395 145.874 136.68 141.964 133.189 141.075C132.083 140.825 119.131 141.058 119.054 141.231Z" fill="url(#paint5_linear)"/>
<path d="M201.101 23.8406C201.247 23.5931 201.332 23.3154 201.352 23.0292C201.309 22.6829 201.191 22.3501 201.006 22.0538C200.142 20.3275 200.393 18.2386 200.816 16.3397C200.9 15.7368 201.155 15.1706 201.551 14.7083C201.755 14.4843 202.037 14.3469 202.339 14.3244C202.641 14.3019 202.94 14.3961 203.175 14.5875C202.959 13.5258 204.1 12.5935 205.18 12.5849C206.259 12.6958 207.283 13.1187 208.126 13.802C209.491 14.6651 210.994 15.839 211.09 17.4704C211.069 18.3842 210.809 19.2767 210.338 20.0599C209.718 21.518 208.885 22.8764 207.867 24.0909C207.141 24.8763 206.251 25.5237 205.586 26.3783C204.941 27.297 204.438 28.3065 204.091 29.3734L203.089 31.9629C202.935 32.4715 202.676 32.9421 202.328 33.344C200.764 34.8718 197.593 33.0419 197.369 31.117C197.248 30.0208 198.233 28.985 198.743 28.1218C199.61 26.7406 200.397 25.3112 201.101 23.8406Z" fill="#F3BD8F"/>
<path d="M116.583 25.869C116.44 25.621 116.357 25.3432 116.341 25.0576C116.379 24.7115 116.494 24.3784 116.678 24.0822C117.542 22.3559 117.3 20.2671 116.868 18.3681C116.788 17.766 116.536 17.1998 116.142 16.7367C115.938 16.5133 115.657 16.3756 115.356 16.3515C115.054 16.3275 114.754 16.4189 114.518 16.6072C114.725 15.5542 113.585 14.622 112.505 14.6133C111.424 14.7218 110.4 15.145 109.558 15.8304C108.202 16.6936 106.698 17.8675 106.603 19.4902C106.624 20.4029 106.88 21.2949 107.346 22.0797C107.968 23.5345 108.8 24.8898 109.817 26.102C110.552 26.8961 111.442 27.5435 112.098 28.3981C112.756 29.3048 113.271 30.3059 113.628 31.3673L114.63 33.9568C114.783 34.4674 115.046 34.9386 115.399 35.3379C116.954 36.8657 120.134 35.0358 120.35 33.1109C120.479 32.0061 119.486 30.9789 118.976 30.1157C118.104 28.7435 117.305 27.3259 116.583 25.869Z" fill="#F3BD8F"/>
<path d="M148.629 60.2833C138.261 55.9675 131.599 46.0411 125.577 36.5981C124.735 35.0947 123.649 33.7413 122.363 32.593C121.716 32.0222 120.94 31.6171 120.102 31.4126C119.263 31.2081 118.388 31.2103 117.55 31.4191C115.477 32.0924 114.31 34.4057 114.284 36.5981C114.258 38.7905 115.148 40.8448 116.012 42.8388C119.468 50.9697 123.011 59.1439 127.815 66.5757C129.222 68.58 130.498 70.6733 131.634 72.8423C133.198 76.1396 133.854 79.7476 134.485 83.3988C135.234 87.6628 135.974 91.9297 136.706 96.1995C137.57 101.145 138.563 106.454 142.184 109.932C146.452 114.032 153.001 114.335 158.928 114.248C161.248 114.364 163.568 114.02 165.754 113.238C169.081 111.797 171.223 108.525 172.666 105.228C177.85 93.8085 177.367 80.6971 180.538 68.5783C183.709 56.4595 197.014 49.1312 202.199 37.7116C202.662 36.8515 202.928 35.8991 202.976 34.9236C202.933 32.1355 199.468 30.461 196.773 31.1429C194.077 31.8248 192.055 34.0259 190.215 36.1233L175.647 52.7047C173.971 54.6123 172.191 56.5717 169.901 57.5988C167.995 58.3207 165.978 58.7062 163.94 58.7382C158.911 59.1094 153.286 62.2254 148.629 60.2833Z" fill="#68E1FD"/>
<path d="M148.629 60.2833C138.261 55.9675 131.599 46.0411 125.577 36.5981C124.735 35.0947 123.649 33.7413 122.363 32.593C121.716 32.0222 120.94 31.6171 120.102 31.4126C119.263 31.2081 118.388 31.2103 117.55 31.4191C115.477 32.0924 114.31 34.4057 114.284 36.5981C114.258 38.7905 115.148 40.8448 116.012 42.8388C119.468 50.9697 123.011 59.1439 127.815 66.5757C129.222 68.58 130.498 70.6733 131.634 72.8423C133.198 76.1396 133.854 79.7476 134.485 83.3988C135.234 87.6628 135.974 91.9297 136.706 96.1995C137.57 101.145 138.563 106.454 142.184 109.932C146.452 114.032 153.001 114.335 158.928 114.248C161.248 114.364 163.568 114.02 165.754 113.238C169.081 111.797 171.223 108.525 172.666 105.228C177.85 93.8085 177.367 80.6971 180.538 68.5783C183.709 56.4595 197.014 49.1312 202.199 37.7116C202.662 36.8515 202.928 35.8991 202.976 34.9236C202.933 32.1355 199.468 30.461 196.773 31.1429C194.077 31.8248 192.055 34.0259 190.215 36.1233L175.647 52.7047C173.971 54.6123 172.191 56.5717 169.901 57.5988C167.995 58.3207 165.978 58.7062 163.94 58.7382C158.911 59.1094 153.286 62.2254 148.629 60.2833Z" fill="url(#paint6_linear)"/>
<path d="M150.288 60.3437C150.44 60.4908 150.566 60.6631 150.66 60.853C151.662 62.7519 151.083 65.1688 152.388 66.9555C153.068 67.8061 154.03 68.3849 155.101 68.5869C156.24 68.8619 157.437 68.7723 158.522 68.3309C159.607 67.8894 160.526 67.1185 161.149 66.1269C162.29 64.0898 161.78 61.578 163.076 59.5841C163.732 58.5742 164.588 57.7197 165.322 56.7702C168.925 52.1091 168.917 45.2901 168.372 39.7055C168.044 36.3996 166.998 32.8002 164.389 30.7804C161.78 28.7606 158.28 28.5189 155.04 28.9246C153.711 29.0447 152.413 29.3952 151.204 29.9604C150.018 30.6435 148.988 31.5683 148.183 32.6747C147.378 33.781 146.815 35.0443 146.53 36.3823C145.984 39.0648 145.821 41.811 146.046 44.5392L146.253 50.4864C146.232 52.4744 146.488 54.4557 147.014 56.3732C147.297 57.3396 147.803 58.2264 148.491 58.9626C149.053 59.5582 149.77 59.8344 150.288 60.3437Z" fill="#F3BD8F"/>
<path d="M143.307 30.5128C142.896 31.8616 142.687 33.2635 142.685 34.6732C142.556 36.2384 142.708 37.814 143.134 39.3257C143.428 40.1889 143.886 41.052 144.188 41.9152C144.897 43.9781 144.914 46.5417 146.677 47.8278C146.607 44.1684 147.076 40.5185 148.068 36.9952C148.909 37.707 149.903 38.2165 150.972 38.4844C152.042 38.7523 153.159 38.7714 154.237 38.5402C155.68 38.2295 156.984 37.4785 158.384 37.0297C159.067 36.746 159.806 36.6241 160.543 36.6736C161.281 36.723 161.997 36.9424 162.635 37.3145C163.318 37.8065 163.862 38.6179 164.7 38.6783C165.11 38.6264 165.526 38.6264 165.936 38.6783C166.506 38.8768 166.687 39.5415 166.8 40.1802L167.888 46.7662C168.2 46.6418 168.453 46.4044 168.597 46.1015C170.325 43.2962 170.325 39.8004 170.118 36.5118C170.076 34.4772 169.623 32.472 168.787 30.6164C168.191 29.5533 167.481 28.5577 166.67 27.6471C165.366 26.0762 163.983 24.4448 162.082 23.6938C160.647 23.2316 159.138 23.0384 157.632 23.1241C156.423 23.0589 155.211 23.1783 154.038 23.478C151.705 24.2117 150.124 26.2229 147.653 26.5854C145.312 26.9479 144.067 28.26 143.307 30.5128Z" fill="#3E3E54"/>
<path d="M150.288 60.3437C150.288 60.3437 157.278 63.2094 162.549 59.4287C162.549 59.4287 161.399 67.3957 157.364 67.6719C153.329 67.9482 151.757 65.6435 151.757 65.6435C151.757 65.6435 152.085 61.6902 150.288 60.3437Z" fill="url(#paint7_linear)"/>
<path d="M135.384 114.74C134.653 118.395 134.386 122.127 134.589 125.849C134.53 126.118 134.53 126.397 134.587 126.667C134.645 126.936 134.759 127.191 134.922 127.413C135.086 127.635 135.295 127.82 135.535 127.955C135.776 128.09 136.042 128.173 136.317 128.197C139.06 128.905 141.868 129.336 144.698 129.483C145.54 129.574 146.391 129.497 147.204 129.259C148.258 128.783 149.156 128.02 149.796 127.058C151.265 125.153 152.466 123.056 153.364 120.826C153.788 119.781 154.228 118.59 155.308 118.236C155.77 118.1 156.254 118.053 156.734 118.098C159.231 118.193 162.065 118.452 163.568 120.437C164.15 121.36 164.606 122.355 164.925 123.398C165.805 125.741 167.448 127.72 169.591 129.017C171.853 130.184 174.415 130.648 176.943 130.346C179.258 130.159 181.523 129.575 183.64 128.62C183.873 128.576 184.093 128.479 184.283 128.338C184.473 128.196 184.628 128.014 184.738 127.803C184.847 127.593 184.906 127.36 184.912 127.124C184.918 126.887 184.87 126.652 184.771 126.436C183.156 119.892 180.997 113.494 178.317 107.308C177.971 106.411 177.503 105.566 176.926 104.797C174.835 102.207 171.042 102.121 167.75 102.207C162.488 102.345 157.218 102.483 151.973 103.07C149.257 103.342 146.558 103.757 143.886 104.313C141.207 104.874 139.98 105.245 138.417 107.541C136.973 109.735 135.945 112.175 135.384 114.74Z" fill="#3E3E54"/>
<path d="M151.386 122.258C151.361 123.037 151.443 123.815 151.627 124.572C151.956 125.531 152.48 126.413 153.165 127.161C153.51 127.618 153.931 128.012 154.41 128.326C155.034 128.659 155.733 128.825 156.44 128.81C158.841 128.749 161.134 127.802 162.877 126.151C163.67 125.537 164.252 124.693 164.545 123.734C164.683 122.928 164.629 122.1 164.389 121.318C164.052 119.902 163.577 118.529 163.102 117.157C163.024 116.887 162.895 116.635 162.722 116.415C162.494 116.223 162.229 116.081 161.943 115.998C161.658 115.915 161.358 115.892 161.063 115.931C158.851 115.931 156.642 116.035 154.436 116.242C153.591 116.231 152.751 116.356 151.947 116.613C151.23 116.967 151.342 117.709 151.351 118.409C151.351 119.712 151.368 120.972 151.386 122.258Z" fill="#F3BD8F"/>
<path d="M161.529 124.218C162.498 124.194 163.45 123.962 164.32 123.536C164.866 123.192 165.336 122.742 165.705 122.213C166.073 121.683 166.33 121.085 166.463 120.454C166.725 119.192 166.815 117.9 166.73 116.613C166.759 116.191 166.669 115.77 166.471 115.396C166.2 115.062 165.837 114.816 165.426 114.688C161.736 113.204 153.545 111.805 151.843 116.95C149.917 122.802 157.434 124.563 161.529 124.218Z" fill="url(#paint8_linear)"/>
<path d="M156.509 63.6151C154.935 63.9427 153.459 64.6341 152.2 65.6338C150.941 66.6336 149.934 67.914 149.26 69.3724L146.797 67.2058C146.694 67.0903 146.553 67.0141 146.4 66.99C146.229 67.0036 146.068 67.0806 145.951 67.2058C144.663 68.3263 143.631 69.7098 142.924 71.2629C142.218 72.8161 141.853 74.5026 141.855 76.2086C141.889 76.4859 141.834 76.7666 141.7 77.0114C141.484 77.3307 141.043 77.3825 140.663 77.4775C139.134 77.8832 138.226 79.5318 138.071 81.1114C138.027 82.6977 138.107 84.2851 138.313 85.8588C138.391 87.3866 138.2 88.9144 138.356 90.4335C138.564 92.1941 139.227 93.8702 140.28 95.2972C141.333 96.7243 142.739 97.8533 144.361 98.5732C147.299 99.8334 150.651 99.6176 153.805 99.0997C156.958 98.5818 160.103 97.7704 163.309 97.9258C164.695 98.1309 166.106 98.1017 167.482 97.8395C168.263 97.5769 168.995 97.1892 169.651 96.6915C171.359 95.5915 172.793 94.1151 173.841 92.3757C174.876 90.2024 175.349 87.8043 175.215 85.4013C175.276 83.481 175.001 81.5649 174.403 79.739C173.836 78.5521 173.34 77.333 172.917 76.0878C172.718 75.2246 172.692 74.3615 172.468 73.4983C171.75 70.7966 169.055 68.984 166.307 68.4661C165.001 68.2375 163.67 68.1852 162.35 68.3107C161.253 68.397 159.533 69.0703 158.47 68.8458C157.408 68.6214 155.628 63.7877 156.509 63.6151Z" fill="#3E3E54"/>
<path d="M143.869 98.8408L144.024 102.095C144.051 104.604 144.341 107.104 144.888 109.553C145.451 112.018 146.786 114.24 148.698 115.897C149.976 116.885 151.448 117.594 153.019 117.977C156.747 118.983 160.706 118.697 164.251 117.166C165.458 116.679 166.552 115.951 167.465 115.025C169.305 113.031 169.729 110.114 169.625 107.412C169.521 104.71 168.951 102.009 169.176 99.3069C169.255 98.7341 169.255 98.1533 169.176 97.5805C169.138 97.2956 169.027 97.0254 168.852 96.7968C168.678 96.5682 168.447 96.3891 168.182 96.2772C169.31 93.2084 169.942 89.9803 170.057 86.7133C170.135 84.987 169.971 83.088 168.709 81.9141C167.867 81.2404 166.852 80.8158 165.78 80.6884C159.023 79.4455 152.077 81.7847 146.055 85.0992C144.858 85.6226 143.874 86.5353 143.264 87.6887C143.007 88.4342 142.913 89.2258 142.987 90.0106C143.048 92.695 143.704 96.1304 143.869 98.8408Z" fill="#F3BD8F"/>
<path d="M137.933 125.504L138.555 139.142L139.047 150C139.047 150.777 139.125 151.563 139.16 152.34C139.194 153.116 139.479 153.911 139.116 154.61C138.157 156.422 135.712 157.389 133.932 158.131C132.124 158.974 130.229 159.616 128.282 160.048C127.84 160.101 127.407 160.211 126.994 160.376C126.781 160.455 126.591 160.585 126.44 160.755C126.289 160.925 126.183 161.13 126.13 161.351C126.114 161.603 126.158 161.854 126.259 162.085C126.36 162.317 126.514 162.52 126.709 162.68C127.258 163.135 127.895 163.472 128.581 163.669C129.266 163.867 129.985 163.921 130.692 163.828C132.103 163.637 133.502 163.369 134.883 163.026C138.434 162.37 142.218 162.887 145.588 161.584C146.077 161.446 146.502 161.14 146.789 160.721C146.938 160.393 147.014 160.037 147.014 159.676C147.195 156.716 147.549 153.807 147.696 150.812L148.56 133.643L149.053 123.475C149.053 123.475 142.331 118.814 137.933 125.504Z" fill="#F3BD8F"/>
<path d="M180.797 123.734L182.171 137.286L183.233 147.799C183.363 149.077 183.156 151.209 183.622 152.365C184.305 154.031 187.078 154.644 188.711 154.808C190.705 154.929 192.706 154.772 194.656 154.342C195.641 154.161 196.764 153.997 197.542 154.618C197.943 155.038 198.176 155.591 198.193 156.171C198.211 156.751 198.012 157.317 197.637 157.76C196.846 158.617 195.832 159.236 194.708 159.547C191.463 160.727 188.099 161.552 184.676 162.007C183.169 162.262 181.63 162.262 180.123 162.007C179.371 161.875 178.653 161.59 178.015 161.172C177.376 160.753 176.829 160.209 176.408 159.573C175.371 157.847 175.837 155.93 175.544 154.057C175.397 153.065 175.146 152.072 174.956 151.088L169.444 123.337C169.444 123.337 175.474 117.753 180.797 123.734Z" fill="#F3BD8F"/>
<path d="M182.11 145.546C181.726 145.395 181.312 145.333 180.901 145.365H176.261C175.734 145.308 175.205 145.44 174.766 145.736C174.555 145.998 174.409 146.305 174.338 146.633C174.268 146.962 174.275 147.302 174.36 147.627C174.614 149.792 175.107 151.922 175.829 153.98C175.879 154.179 175.991 154.357 176.148 154.489C177.108 155.11 179.89 154.282 180.918 153.98C181.88 153.789 182.748 153.278 183.38 152.529C184.4 151.036 183.786 146.358 182.11 145.546Z" fill="white"/>
<path d="M140.266 148.309C140.653 148.157 141.069 148.095 141.484 148.127H146.176C146.708 148.069 147.243 148.2 147.688 148.498C147.901 148.763 148.05 149.075 148.122 149.407C148.194 149.74 148.187 150.085 148.102 150.415C147.842 152.606 147.344 154.762 146.616 156.845C146.564 157.048 146.449 157.229 146.288 157.363C145.329 157.985 142.503 157.147 141.467 156.837C140.494 156.65 139.616 156.135 138.978 155.378C137.941 153.859 138.563 149.137 140.266 148.309Z" fill="white"/>
<path d="M144.992 137.036C145.682 136.894 146.398 136.951 147.057 137.2C147.857 137.699 148.466 138.453 148.785 139.34C149.165 140.134 149.485 141.205 148.785 141.783C148.966 142.474 149.45 143.061 149.649 143.751C149.848 144.442 149.493 145.382 148.785 145.408C149.115 145.832 149.305 146.348 149.329 146.884C149.335 147.147 149.253 147.404 149.097 147.615C148.94 147.826 148.718 147.979 148.465 148.05C148.543 148.421 148.526 148.913 148.163 149.016C148.055 149.042 147.942 149.042 147.834 149.016C146.569 148.592 145.283 148.235 143.981 147.946C143.325 147.809 142.643 147.863 142.016 148.101C141.39 148.34 140.845 148.754 140.447 149.293C139.998 150.061 139.903 151.166 139.082 151.52C138.795 151.602 138.494 151.628 138.198 151.593C137.901 151.559 137.614 151.467 137.354 151.321C136.771 151.261 136.232 150.984 135.843 150.546C135.455 150.109 135.245 149.541 135.254 148.956C135.176 147.867 135.176 146.774 135.254 145.685C135.41 143.648 136.04 141.222 137.846 139.988C139.965 138.461 142.412 137.45 144.992 137.036Z" fill="#F3BD8F"/>
<path d="M175.388 136.371C174.682 136.322 173.977 136.477 173.358 136.82C172.627 137.421 172.121 138.252 171.923 139.176C171.656 140.039 171.483 141.127 172.226 141.61C172.139 142.318 171.742 142.966 171.664 143.673C171.586 144.381 172.036 145.262 172.753 145.193C172.484 145.657 172.366 146.194 172.416 146.729C172.449 146.995 172.572 147.242 172.763 147.43C172.954 147.618 173.203 147.736 173.47 147.765C173.47 148.136 173.531 148.628 173.902 148.68C174.012 148.677 174.121 148.654 174.222 148.611C175.416 148.013 176.642 147.48 177.894 147.014C178.527 146.791 179.211 146.754 179.865 146.907C180.519 147.06 181.115 147.396 181.583 147.877C182.136 148.576 182.378 149.655 183.242 149.897C183.825 149.972 184.414 149.817 184.884 149.465C185.66 149.155 186.282 148.55 186.612 147.782C186.681 147.468 186.699 147.144 186.664 146.824C186.592 145.736 186.442 144.654 186.214 143.587C185.782 141.593 184.823 139.271 182.905 138.305C180.586 137.08 178.011 136.417 175.388 136.371Z" fill="#F3BD8F"/>
<path d="M138.391 188.696C138.391 188.696 129.413 247.797 129.413 248.608C129.413 249.419 115.356 309.694 115.356 309.694L126.45 310.229L151.878 235.367L157.295 221.315L168.925 250.775L183.804 312.663H196.764C196.764 312.663 187.26 246.985 185.946 245.337C184.633 243.688 182.75 195.636 177.021 189.965C171.293 184.294 137.561 185.917 137.561 185.917L138.391 188.696Z" fill="#3E3E54"/>
<path d="M102.396 316.556C101.785 316.9 101.301 317.429 101.013 318.067C100.918 318.473 100.943 318.899 101.086 319.291C101.228 319.684 101.482 320.026 101.817 320.276C102.495 320.759 103.287 321.056 104.115 321.14C107.847 321.718 111.615 320.613 115.347 319.897C118.241 319.346 121.173 319.023 124.117 318.93C124.56 318.98 125.009 318.937 125.435 318.803C125.86 318.669 126.253 318.448 126.588 318.153C126.934 317.62 127.1 316.991 127.063 316.358C127.141 314.709 127.158 313.052 127.133 311.403C127.197 311.105 127.182 310.795 127.088 310.505C126.993 310.215 126.824 309.955 126.597 309.752C126.369 309.548 126.092 309.409 125.793 309.347C125.494 309.285 125.184 309.304 124.895 309.401C121.318 309.401 117.118 308.762 113.619 309.867C112.003 310.385 102.396 315.063 102.396 316.556Z" fill="#3E3E54"/>
<path d="M208.195 318.041C208.803 318.388 209.285 318.92 209.569 319.56C209.666 319.964 209.642 320.388 209.501 320.779C209.359 321.17 209.107 321.512 208.774 321.761C208.096 322.244 207.304 322.541 206.476 322.624C202.734 323.203 198.976 322.098 195.243 321.39C192.354 320.831 189.424 320.508 186.482 320.423C186.038 320.474 185.588 320.431 185.162 320.295C184.736 320.16 184.344 319.936 184.011 319.638C183.665 319.105 183.499 318.476 183.536 317.842C183.458 316.194 183.432 314.536 183.467 312.888C183.42 312.381 183.545 311.874 183.821 311.446C184.075 311.222 184.376 311.056 184.701 310.959C185.026 310.862 185.369 310.837 185.704 310.885C189.282 310.885 193.481 310.255 196.937 311.351C198.596 311.878 208.195 316.548 208.195 318.041Z" fill="#3E3E54"/>
<path d="M145.873 155.205C142.737 156.483 139.134 154.731 135.816 155.412C134.537 155.744 133.313 156.256 132.178 156.932L126.847 159.815C126.141 160.096 125.538 160.587 125.119 161.222C124.913 161.764 124.903 162.361 125.089 162.91C125.275 163.46 125.646 163.928 126.139 164.234C127.153 164.807 128.3 165.104 129.465 165.097C133.612 165.347 137.769 165.347 141.916 165.097C143.055 165.111 144.188 164.933 145.268 164.571C146.07 164.238 146.774 163.709 147.315 163.031C147.856 162.353 148.216 161.55 148.361 160.695C148.491 159.833 148.4 158.952 148.098 158.134C147.796 157.317 147.292 156.588 146.633 156.017L145.873 155.205Z" fill="#3E3E54"/>
<path d="M175.371 154.014C179.043 154.705 182.568 152.012 186.309 152.02C187.766 152.105 189.203 152.396 190.578 152.883L196.989 154.782C197.804 154.936 198.552 155.337 199.131 155.93C199.467 156.468 199.607 157.106 199.526 157.735C199.446 158.364 199.151 158.946 198.691 159.383C197.727 160.246 196.553 160.842 195.286 161.109C190.847 162.285 186.34 163.19 181.79 163.82C180.562 164.088 179.297 164.146 178.049 163.992C177.107 163.809 176.226 163.391 175.489 162.777C174.752 162.163 174.182 161.372 173.833 160.479C173.507 159.572 173.416 158.597 173.567 157.645C173.718 156.694 174.107 155.795 174.697 155.033L175.371 154.014Z" fill="#3E3E54"/>
<defs>
<linearGradient id="paint0_linear" x1="157.451" y1="220.676" x2="145.301" y2="445.272" gradientUnits="userSpaceOnUse">
<stop offset="0.01"/>
<stop offset="0.13" stop-opacity="0.69"/>
<stop offset="1" stop-opacity="0"/>
</linearGradient>
<linearGradient id="paint1_linear" x1="22535.8" y1="3870.45" x2="24186.3" y2="8586.13" gradientUnits="userSpaceOnUse">
<stop offset="0.01"/>
<stop offset="0.13" stop-opacity="0.69"/>
<stop offset="1" stop-opacity="0"/>
</linearGradient>
<linearGradient id="paint2_linear" x1="39697.5" y1="16878.4" x2="50581.7" y2="44263.4" gradientUnits="userSpaceOnUse">
<stop offset="0.01"/>
<stop offset="0.13" stop-opacity="0.69"/>
<stop offset="1" stop-opacity="0"/>
</linearGradient>
<linearGradient id="paint3_linear" x1="37319.4" y1="16852" x2="46488.7" y2="39914.7" gradientUnits="userSpaceOnUse">
<stop offset="0.01"/>
<stop offset="0.13" stop-opacity="0.69"/>
<stop offset="1" stop-opacity="0"/>
</linearGradient>
<linearGradient id="paint4_linear" x1="11117.9" y1="8285.9" x2="6565.34" y2="7775.93" gradientUnits="userSpaceOnUse">
<stop offset="0.01"/>
<stop offset="0.13" stop-opacity="0.69"/>
<stop offset="1" stop-opacity="0"/>
</linearGradient>
<linearGradient id="paint5_linear" x1="3790.62" y1="13207.5" x2="7624.28" y2="11301.3" gradientUnits="userSpaceOnUse">
<stop offset="0.01"/>
<stop offset="0.13" stop-opacity="0.69"/>
<stop offset="1" stop-opacity="0"/>
</linearGradient>
<linearGradient id="paint6_linear" x1="15961" y1="12181.4" x2="16696.2" y2="4622.67" gradientUnits="userSpaceOnUse">
<stop offset="0.01"/>
<stop offset="0.13" stop-opacity="0.69"/>
<stop offset="1" stop-opacity="0"/>
</linearGradient>
<linearGradient id="paint7_linear" x1="2453.91" y1="564.741" x2="2433.71" y2="830.582" gradientUnits="userSpaceOnUse">
<stop offset="0.01"/>
<stop offset="0.13" stop-opacity="0.69"/>
<stop offset="1" stop-opacity="0"/>
</linearGradient>
<linearGradient id="paint8_linear" x1="3013.76" y1="984.537" x2="3036.24" y2="2098.75" gradientUnits="userSpaceOnUse">
<stop offset="0.01"/>
<stop offset="0.13" stop-opacity="0.69"/>
<stop offset="1" stop-opacity="0"/>
</linearGradient>
</defs>
</svg>
